<svg
  xmlns="http://www.w3.org/2000/svg"
  width="1024"
  height="1024"
  viewBox="0 0 1024 1024"
  fill="none"
>
  <defs>
    <radialGradient
      id="bgGlow"
      cx="0"
      cy="0"
      r="1"
      gradientUnits="userSpaceOnUse"
      gradientTransform="translate(200 824) rotate(-35) scale(768 736)"
    >
      <stop stop-color="#1558B6" stop-opacity="0.32" />
      <stop offset="1" stop-color="#0A1724" stop-opacity="0" />
    </radialGradient>
    <radialGradient
      id="bgFill"
      cx="0"
      cy="0"
      r="1"
      gradientUnits="userSpaceOnUse"
      gradientTransform="translate(358 286) rotate(52) scale(892 824)"
    >
      <stop stop-color="#16324C" />
      <stop offset="0.58" stop-color="#0D2030" />
      <stop offset="1" stop-color="#091521" />
    </radialGradient>
    <radialGradient
      id="discFill"
      cx="0"
      cy="0"
      r="1"
      gradientUnits="userSpaceOnUse"
      gradientTransform="translate(442 396) rotate(54) scale(608 572)"
    >
      <stop stop-color="#132A3F" />
      <stop offset="0.72" stop-color="#0E1B28" />
      <stop offset="1" stop-color="#0B1722" />
    </radialGradient>
    <linearGradient
      id="ringStroke"
      x1="212"
      y1="244"
      x2="824"
      y2="792"
      gradientUnits="userSpaceOnUse"
    >
      <stop stop-color="#89B8FF" stop-opacity="0.78" />
      <stop offset="0.45" stop-color="#2E74F0" />
      <stop offset="1" stop-color="#5A9EFF" stop-opacity="0.88" />
    </linearGradient>
    <linearGradient
      id="markStroke"
      x1="512"
      y1="340"
      x2="512"
      y2="680"
      gradientUnits="userSpaceOnUse"
    >
      <stop stop-color="#72D5FF" />
      <stop offset="1" stop-color="#2B90F4" />
    </linearGradient>
    <filter
      id="ringGlow"
      x="124"
      y="124"
      width="776"
      height="776"
      color-interpolation-filters="sRGB"
    >
      <feGaussianBlur stdDeviation="18" />
    </filter>
    <filter
      id="markGlow"
      x="240"
      y="256"
      width="544"
      height="520"
      color-interpolation-filters="sRGB"
    >
      <feGaussianBlur stdDeviation="22" />
    </filter>
  </defs>

  <rect width="1024" height="1024" rx="248" fill="url(#bgFill)" />
  <rect width="1024" height="1024" rx="248" fill="url(#bgGlow)" />

  <circle cx="512" cy="512" r="334" fill="url(#discFill)" />

  <circle
    cx="512"
    cy="512"
    r="334"
    stroke="url(#ringStroke)"
    stroke-width="16"
    opacity="0.38"
    filter="url(#ringGlow)"
  />
  <circle
    cx="512"
    cy="512"
    r="334"
    stroke="url(#ringStroke)"
    stroke-width="16"
  />
  <circle
    cx="512"
    cy="512"
    r="390"
    stroke="#80A9EE"
    stroke-width="8"
    opacity="0.1"
  />
  <circle
    cx="512"
    cy="512"
    r="444"
    stroke="#6C93D6"
    stroke-width="8"
    opacity="0.06"
  />

  <g
    stroke-linecap="round"
    stroke-linejoin="round"
    stroke-width="34"
    stroke="url(#markStroke)"
  >
    <path
      d="M512 676Q416 528 512 366"
      opacity="0.38"
      filter="url(#markGlow)"
    />
    <path
      d="M512 676Q608 528 512 366"
      opacity="0.38"
      filter="url(#markGlow)"
    />
    <path
      d="M494 668Q291 587 335 502"
      opacity="0.38"
      filter="url(#markGlow)"
    />
    <path
      d="M494 668Q449 451 335 502"
      opacity="0.38"
      filter="url(#markGlow)"
    />
    <path
      d="M530 668Q733 587 689 502"
      opacity="0.38"
      filter="url(#markGlow)"
    />
    <path
      d="M530 668Q575 451 689 502"
      opacity="0.38"
      filter="url(#markGlow)"
    />

    <path d="M512 676Q416 528 512 366" />
    <path d="M512 676Q608 528 512 366" />
    <path d="M494 668Q291 587 335 502" />
    <path d="M494 668Q449 451 335 502" />
    <path d="M530 668Q733 587 689 502" />
    <path d="M530 668Q575 451 689 502" />
  </g>
</svg>
